<?xml version="1.0" encoding="UTF-8"?>
<svg id="Layer_1" data-name="Layer 1" xmlns="http://www.w3.org/2000/svg" viewBox="0 0 364.28 227.85">
  <defs>
    <style>
      .cls-1 {
        fill: #ee9d3c;
      }

      .cls-2 {
        fill: #c474ab;
      }

      .cls-3 {
        fill: #fbf9f9;
      }
    </style>
  </defs>
  
  <path class="cls-2" d="M232.06,62.64c-10.48,10.5-19.36,28.51-25.91,41.91-9.71,19.89-18.44,40.43-28.27,60.2-8.75,17.6-18.69,36.52-42.05,32.52-8.57-1.47-14.84-6.04-20.38-12.32,6.27-.72,9.61-7.95,12.13-13,6.24-12.48,11.27-25.69,17.02-38.4,8.45-18.68,17.21-39.69,27.51-57.29,20.29-34.7,58.46-53.24,98.62-48.72,22.98,2.59,50.83,15.93,49.02,43.03-1.15,17.18-19.69,28.57-34.93,18.84-13.11-8.38-7.93-25.29-20.33-34.06-11.33-8.02-23.94-1.21-32.44,7.3Z"/>
  <path class="cls-1" d="M144.61,133.54c-5.75,12.71-10.78,25.92-17.02,38.4-2.52,5.05-5.87,12.28-12.13,13-4.66-5.29-6.97-9.69-10.07-15.98-15.96-32.42-29.64-66.01-45.74-98.37-5.55-11.15-12.6-24.44-24.37-30.02-2.44-1.16-7.1-1.97-7.28-5.36-.15-2.79,2.32-4.01,4.72-4.23,4.5-.41,10.01-.07,14.69-.23,22.07-.78,43.47-2.32,65.66-1.16,1.94.1,6.28.34,7.8,1.38.68.47,1.45,1.47,1.62,2.28.87,4.13-4.08,5.04-6.71,6.63-8.67,5.23-6.09,12.88-3.23,20.75,1.6,4.4,3.55,8.9,5.34,13.24,8.31,20.16,17.73,39.82,26.73,59.67Z"/>
  <path class="cls-1" d="M232.06,62.64c0,.48-.51,1.25-.77,1.64-15.43,23.37-17.08,67.44,7.95,85.15,22.61,16,54.35,10.38,74.54-6.82,3.24-2.76,6.74-8.06,11.68-5.03,5.43,3.33,1,15.63-1.09,20.21-13.7,30.13-49.85,43.97-81.41,41.37-25.44-2.09-48.97-14.87-65.08-34.42,9.83-19.77,18.55-40.31,28.27-60.2,6.54-13.4,15.42-31.41,25.91-41.91Z"/>
</svg>