<?xml version="1.0" encoding="UTF-8"?>
<svg id="Layer_1" xmlns="http://www.w3.org/2000/svg" version="1.1" viewBox="25 222 340 72">
  <!-- Generator: Adobe Illustrator 29.8.6, SVG Export Plug-In . SVG Version: 2.1.1 Build 1)  -->
  <defs>
    <style>
      .st0 {
        fill: #fbb349;
      }

      .st1 {
        isolation: isolate;
      }

      .st2 {
        fill: #db84b6;
      }
    </style>
  </defs>
  <g>
    <g>
      <path d="M95.87,236.94c10.77-.14,9.67,13.1-.55,12.97-10.32-.13-10.15-12.83.55-12.97Z"/>
      <path d="M75.41,231.12c-.26-.32-.39-.83-.29-1.23l.77-.72c4.42-.34,9.32-.76,13.75-.44,6.7.48.92,3.87-.86,6.04-1.06,1.29-1.91,2.76-2.57,4.3-3.85,8.9-6.41,19.79-9.89,29.12-1.2,3.23-2.49,6.73-3.87,9.87-1.42,3.23-1.91,5.77-6.03,5.75-8.6-.05-11.06-7.28-14.26-13.94-3.99-8.31-7.26-17-11.23-25.32-2.15-4.5-4.35-9.65-8.62-12.47-.99-.65-2.74-.84-2.63-2.18.33-1.36,4.76-.84,5.96-.9,5.64-.27,11.43-.47,17.1-.26,1.25.05,6.36.28,6.95.86,1.14,1.11-1.35,2.17-1.96,2.71-3.13,2.72-1.34,6.46-.18,9.77,3.03,8.61,7.42,17.17,10.96,25.59,1.34,1.76,2.33-2.04,2.67-2.92,2.75-7.19,6.01-15.75,8.06-23.1.54-1.92,1.59-5.22.91-7.07-.93-2.54-3.76-2.25-4.75-3.45h.01Z"/>
      <path d="M122.48,255.76c4.21-4.6,11.58-7.04,17.26-3.73,6.85,3.99,4.46,16.3,4.96,23.03.26,3.49,1.58,6.31,5.33,6.8l.21.56c-.06.87-1.32,1.1-2.06,1.28-4.25,1.05-12.06.73-15.07-2.87-3.55-4.24-.84-14.6-2.18-20.17-1.08-4.48-6.45-4.08-7.64-.53-1,2.98-.75,13.02-.28,16.37.2,1.45.46,2.37,1.43,3.48.43.5,1.84,1.06,1.2,2.05-.11.17-1.9.5-2.28.53-3.77.31-10.15.28-13.94,0-4.86-.35-1.54-1.87-.75-3.48.72-1.45.82-4.74.89-6.47.14-3.29.42-11.88-.62-14.63-.63-1.65-1.94-1.53-2.34-2.14-.54-.82-.05-1.55.79-1.88,2.27-.89,10.15-2.77,12.6-3.04.5-.06,2.49-.25,2.49.55v4.3h0Z"/>
      <path d="M203.59,278.61c-5.12,7.86-22.59,6.7-21.23-5.01.81-6.95,8.56-8.66,14.27-8.99,1.55-.09,4.38.66,5.02-.63-.31-2.81-1.18-8.99-5.21-8.17-2.9.59-1.2,4.52-4.32,6.22-4.7,2.56-10.13-2.09-6.96-6.76,2.88-4.24,13.19-5.12,17.79-4.41,12.85,1.99,11.82,13.46,14.15,23.37.53,2.26.99,4.4,2.98,5.85,1.09.8,5.19,1.36,2.15,2.65-3.47,1.48-12.16,1.34-15.44-.58-1.54-.9-2.23-2.15-3.19-3.54h-.01ZM202.09,268.08c-3.94-1.05-8.32.74-7.72,5.44.65,5.06,8.48,5.62,8.49,1.29l-.77-6.73Z"/>
      <path d="M162.63,272.39c3.36,3.68,9.28,3.65,13.51,1.6.94-.45,4.63-3.65,4.69-.91.09,3.91-5.62,8.24-8.95,9.4-12.73,4.47-26.74-3.39-23.64-18.13,2.41-11.46,18.13-17.2,27.9-12.09,6.82,3.57,4.87,13.27-1.98,12.56-5-.52-2.43-9.15-7.85-9.34-7.14-.24-7.7,12.5-3.69,16.88h0Z"/>
      <path d="M102.39,251.89c.76.76.07,3.68.05,4.72-.11,5.87-.42,13.19.01,18.93.1,1.32.42,3.31,1.33,4.31.54.59,1.82.84,1.24,1.96-.29.55-1.6.69-2.2.74-3.67.31-10.25.29-13.94,0-.9-.07-2.83-.19-2.46-1.49.18-.63.84-.72,1.12-1.1.99-1.3,1.33-2.55,1.46-4.18.34-4.04.36-11.46.01-15.49-.07-.8-.29-1.83-.65-2.55-.7-1.4-4.45-2.63-.74-3.75,2.16-.65,12.13-2.65,13.95-2.4.25.03.63.1.81.28h0Z"/>
    </g>
    <g>
      <path class="st2" d="M95.87,236.94c10.77-.14,9.67,13.1-.55,12.97-10.32-.13-10.15-12.83.55-12.97Z"/>
      <path class="st2" d="M75.41,231.12c-.26-.32-.39-.83-.29-1.23l.77-.72c4.42-.34,9.32-.76,13.75-.44,6.7.48.92,3.87-.86,6.04-1.06,1.29-1.91,2.76-2.57,4.3-3.85,8.9-6.41,19.79-9.89,29.12-1.2,3.23-2.49,6.73-3.87,9.87-1.42,3.23-1.91,5.77-6.03,5.75-8.6-.05-11.06-7.28-14.26-13.94-3.99-8.31-7.26-17-11.23-25.32-2.15-4.5-4.35-9.65-8.62-12.47-.99-.65-2.74-.84-2.63-2.18.33-1.36,4.76-.84,5.96-.9,5.64-.27,11.43-.47,17.1-.26,1.25.05,6.36.28,6.95.86,1.14,1.11-1.35,2.17-1.96,2.71-3.13,2.72-1.34,6.46-.18,9.77,3.03,8.61,7.42,17.17,10.96,25.59,1.34,1.76,2.33-2.04,2.67-2.92,2.75-7.19,6.01-15.75,8.06-23.1.54-1.92,1.59-5.22.91-7.07-.93-2.54-3.76-2.25-4.75-3.45h.01Z"/>
      <path class="st2" d="M122.48,255.76c4.21-4.6,11.58-7.04,17.26-3.73,6.85,3.99,4.46,16.3,4.96,23.03.26,3.49,1.58,6.31,5.33,6.8l.21.56c-.06.87-1.32,1.1-2.06,1.28-4.25,1.05-12.06.73-15.07-2.87-3.55-4.24-.84-14.6-2.18-20.17-1.08-4.48-6.45-4.08-7.64-.53-1,2.98-.75,13.02-.28,16.37.2,1.45.46,2.37,1.43,3.48.43.5,1.84,1.06,1.2,2.05-.11.17-1.9.5-2.28.53-3.77.31-10.15.28-13.94,0-4.86-.35-1.54-1.87-.75-3.48.72-1.45.82-4.74.89-6.47.14-3.29.42-11.88-.62-14.63-.63-1.65-1.94-1.53-2.34-2.14-.54-.82-.05-1.55.79-1.88,2.27-.89,10.15-2.77,12.6-3.04.5-.06,2.49-.25,2.49.55v4.3h0Z"/>
      <path class="st2" d="M203.59,278.61c-5.12,7.86-22.59,6.7-21.23-5.01.81-6.95,8.56-8.66,14.27-8.99,1.55-.09,4.38.66,5.02-.63-.31-2.81-1.18-8.99-5.21-8.17-2.9.59-1.2,4.52-4.32,6.22-4.7,2.56-10.13-2.09-6.96-6.76,2.88-4.24,13.19-5.12,17.79-4.41,12.85,1.99,11.82,13.46,14.15,23.37.53,2.26.99,4.4,2.98,5.85,1.09.8,5.19,1.36,2.15,2.65-3.47,1.48-12.16,1.34-15.44-.58-1.54-.9-2.23-2.15-3.19-3.54h-.01ZM202.09,268.08c-3.94-1.05-8.32.74-7.72,5.44.65,5.06,8.48,5.62,8.49,1.29l-.77-6.73Z"/>
      <path class="st2" d="M162.63,272.39c3.36,3.68,9.28,3.65,13.51,1.6.94-.45,4.63-3.65,4.69-.91.09,3.91-5.62,8.24-8.95,9.4-12.73,4.47-26.74-3.39-23.64-18.13,2.41-11.46,18.13-17.2,27.9-12.09,6.82,3.57,4.87,13.27-1.98,12.56-5-.52-2.43-9.15-7.85-9.34-7.14-.24-7.7,12.5-3.69,16.88h0Z"/>
      <path class="st2" d="M102.39,251.89c.76.76.07,3.68.05,4.72-.11,5.87-.42,13.19.01,18.93.1,1.32.42,3.31,1.33,4.31.54.59,1.82.84,1.24,1.96-.29.55-1.6.69-2.2.74-3.67.31-10.25.29-13.94,0-.9-.07-2.83-.19-2.46-1.49.18-.63.84-.72,1.12-1.1.99-1.3,1.33-2.55,1.46-4.18.34-4.04.36-11.46.01-15.49-.07-.8-.29-1.83-.65-2.55-.7-1.4-4.45-2.63-.74-3.75,2.16-.65,12.13-2.65,13.95-2.4.25.03.63.1.81.28h0Z"/>
    </g>
  </g>
  <g class="st1">
    <g class="st1">
      <path class="st0" d="M229.73,260.04c0-1.86.48-3.49,1.44-4.92.96-1.42,2.28-2.53,3.98-3.33,1.7-.8,3.66-1.2,5.89-1.2s4.01.38,5.59,1.13c1.58.75,2.81,1.83,3.7,3.22.88,1.39,1.36,3.04,1.41,4.96h-5.57c-.06-1.36-.55-2.43-1.48-3.2-.93-.77-2.17-1.15-3.74-1.15-1.71,0-3.08.38-4.11,1.15-1.03.77-1.54,1.82-1.54,3.15,0,1.13.31,2.02.94,2.67.62.65,1.6,1.14,2.94,1.46l5,1.13c2.73.58,4.76,1.57,6.09,2.98,1.33,1.41,2,3.3,2,5.68,0,1.94-.48,3.65-1.44,5.13-.96,1.48-2.31,2.62-4.07,3.41-1.75.8-3.81,1.2-6.16,1.2s-4.19-.38-5.87-1.15c-1.68-.77-2.99-1.85-3.94-3.24-.94-1.39-1.44-3.03-1.5-4.92h5.57c.03,1.33.56,2.39,1.59,3.15,1.03.77,2.43,1.15,4.2,1.15s3.33-.38,4.41-1.15c1.09-.77,1.63-1.79,1.63-3.07,0-1.1-.29-1.98-.87-2.63s-1.52-1.11-2.83-1.37l-5.05-1.13c-2.7-.58-4.74-1.63-6.13-3.15s-2.09-3.52-2.09-5.98Z"/>
      <path class="st0" d="M254.39,261.48h13.57v4.44h-13.57v-4.44ZM263.83,282.96h-5.31v-28.19h5.31v28.19Z"/>
    </g>
    <g class="st1">
      <path class="st0" d="M285.88,261.48h5.31v21.49h-4.92l-.39-2.87c-.64,1.02-1.59,1.84-2.87,2.48s-2.64.96-4.09.96c-2.47,0-4.39-.78-5.79-2.35-1.39-1.57-2.09-3.65-2.09-6.26v-13.44h5.31v11.57c0,2.03.39,3.49,1.17,4.39.78.9,1.91,1.35,3.39,1.35,1.68,0,2.93-.5,3.74-1.5.81-1,1.22-2.52,1.22-4.55v-11.27Z"/>
    </g>
    <g class="st1">
      <path class="st0" d="M305.05,283.53c-2.09,0-3.88-.47-5.37-1.41-1.49-.94-2.65-2.25-3.48-3.94-.83-1.68-1.24-3.64-1.24-5.87s.41-4.21,1.24-5.94c.83-1.72,2.02-3.08,3.59-4.07,1.57-.99,3.42-1.48,5.57-1.48,1.51,0,2.89.3,4.13.89,1.25.59,2.2,1.43,2.87,2.5v-13.61h5.26v32.36h-4.87l-.35-3.35c-.64,1.22-1.62,2.17-2.94,2.87-1.32.7-2.79,1.04-4.42,1.04ZM306.23,278.66c1.25,0,2.32-.27,3.22-.8.9-.54,1.6-1.31,2.11-2.31.51-1,.76-2.14.76-3.41s-.25-2.44-.76-3.42c-.51-.97-1.21-1.74-2.11-2.31s-1.97-.85-3.22-.85-2.28.28-3.17.85c-.9.57-1.59,1.34-2.07,2.33-.48.99-.72,2.12-.72,3.39s.24,2.41.72,3.39,1.17,1.75,2.07,2.3c.9.55,1.96.83,3.17.83Z"/>
      <path class="st0" d="M325.76,257.17c-.9,0-1.66-.31-2.28-.94-.62-.62-.94-1.38-.94-2.28s.31-1.65.94-2.26c.62-.61,1.38-.91,2.28-.91s1.66.3,2.28.91c.62.61.93,1.36.93,2.26s-.31,1.66-.93,2.28-1.39.94-2.28.94ZM323.15,282.96v-21.49h5.31v21.49h-5.31Z"/>
      <path class="st0" d="M332.67,272.18c0-2.23.49-4.2,1.48-5.89.99-1.7,2.35-3.02,4.09-3.98,1.74-.96,3.71-1.43,5.92-1.43s4.21.48,5.94,1.43c1.72.96,3.08,2.28,4.07,3.98.99,1.7,1.48,3.66,1.48,5.89s-.49,4.2-1.48,5.89c-.99,1.7-2.34,3.02-4.07,3.98-1.73.96-3.71,1.43-5.94,1.43s-4.18-.48-5.92-1.43c-1.74-.96-3.1-2.28-4.09-3.98-.99-1.7-1.48-3.66-1.48-5.89ZM337.98,272.18c0,1.3.27,2.45.8,3.44.54.99,1.26,1.75,2.17,2.3.91.55,1.98.83,3.2.83s2.29-.28,3.22-.83c.93-.55,1.65-1.32,2.17-2.3.52-.99.78-2.13.78-3.44s-.26-2.49-.78-3.46c-.52-.97-1.25-1.73-2.17-2.28-.93-.55-2-.83-3.22-.83s-2.28.28-3.2.83c-.91.55-1.64,1.31-2.17,2.28-.54.97-.8,2.12-.8,3.46Z"/>
    </g>
  </g>
</svg>